<svg width="1024" height="1024" viewBox="0 0 24 24" fill="none" xmlns="http://www.w3.org/2000/svg">
  <rect width="24" height="24" rx="4" fill="#1a1a1a"/>
  <path d="M12 2c4.8 0 8.5 3.7 8.5 8.5 0 2.6-1.1 4.9-2.9 6.5-.5.5-1.2.5-1.7 0-.4-.4-.4-1 0-1.5 1.3-1.2 2.1-2.9 2.1-4.8 0-3.8-3.1-6.9-6.9-6.9-2.5 0-4.6 1.3-5.8 3.3-.3.5-1 .6-1.5.3-.5-.3-.6-1-.3-1.5C4.9 3.6 8.2 2 12 2z" fill="#e0e0e0"/>
  <path d="M6.5 9.5c3.1-1.1 6.4 0 8.2 2.7.6.9 1.7 1.3 2.7.9 0 0-1.5 3.8-6.2 5.2-3.4 1-6.6.1-8.6-1.1 0 0 2.1-.5 3.4-1.7 1.1-1 1.4-2.1 1.6-3.3.1-.9-.3-1.8-1.1-2.4z" fill="#e64a19"/>
  <circle cx="15.2" cy="10.8" r="1.2" fill="#ffeb3b"/>
</svg>
